<svg width="24" height="24" viewBox="0 0 24 24" fill="none" xmlns="http://www.w3.org/2000/svg">
<path fill-rule="evenodd" clip-rule="evenodd" d="M18.4527 2.58877C17.6677 1.80374 16.3949 1.80374 15.6099 2.58877L3.34036 14.8583C3.06094 15.1377 2.87007 15.4933 2.79161 15.8806L2.04005 19.5907C1.90626 20.2511 2.1123 20.9347 2.5888 21.4112C3.0653 21.8877 3.74887 22.0937 4.40932 21.96L8.1194 21.2084C8.5067 21.1299 8.86229 20.9391 9.14172 20.6596L21.4112 8.39012C22.1963 7.6051 22.1963 6.33232 21.4112 5.54729L18.4527 2.58877ZM4.57274 17.2129L4.44348 17.851L4.01022 19.9898L6.14901 19.5565L6.78711 19.4273L4.57274 17.2129ZM7.805 17.6023L8.5806 18.3779L17.2101 9.7484L16.4345 8.97279L7.805 17.6023ZM6.38358 16.1809L5.62208 15.4194L14.2516 6.78988L15.0131 7.55137L6.38358 16.1809ZM19.9898 6.96871L18.6315 8.32698L15.673 5.36846L17.0313 4.01019L18.4527 5.43161L18.5684 5.54729L19.9898 6.96871Z" fill="black"/>
</svg>
